solid OpenSCAD_Model
  facet normal -1 0 0
    outer loop
      vertex 0 0 0
      vertex 0 20 2
      vertex 0 20 0
    endloop
  endfacet
  facet normal -1 -0 0
    outer loop
      vertex 0 20 2
      vertex 0 0 0
      vertex 0 0 2
    endloop
  endfacet
  facet normal -0 0 1
    outer loop
      vertex 0 20 2
      vertex 10 0 2
      vertex 10 20 2
    endloop
  endfacet
  facet normal 0 0 1
    outer loop
      vertex 10 0 2
      vertex 0 20 2
      vertex 0 0 2
    endloop
  endfacet
  facet normal 1 -0 0
    outer loop
      vertex 10 0 2
      vertex 10 20 0
      vertex 10 20 2
    endloop
  endfacet
  facet normal 1 0 0
    outer loop
      vertex 10 20 0
      vertex 10 0 2
      vertex 10 0 0
    endloop
  endfacet
  facet normal 0 0 -1
    outer loop
      vertex 0 0 0
      vertex 10 20 0
      vertex 10 0 0
    endloop
  endfacet
  facet normal -0 0 -1
    outer loop
      vertex 10 20 0
      vertex 0 0 0
      vertex 0 20 0
    endloop
  endfacet
  facet normal 0 -1 0
    outer loop
      vertex 0 0 0
      vertex 10 0 2
      vertex 0 0 2
    endloop
  endfacet
  facet normal 0 -1 -0
    outer loop
      vertex 10 0 2
      vertex 0 0 0
      vertex 10 0 0
    endloop
  endfacet
  facet normal 0 1 -0
    outer loop
      vertex 10 20 0
      vertex 0 20 2
      vertex 10 20 2
    endloop
  endfacet
  facet normal 0 1 0
    outer loop
      vertex 0 20 2
      vertex 10 20 0
      vertex 0 20 0
    endloop
  endfacet
  facet normal 0.951057 0.309017 0
    outer loop
      vertex -10 0 30
      vertex -11.9098 5.87785 0
      vertex -11.9098 5.87785 30
    endloop
  endfacet
  facet normal 0.951057 0.309017 0
    outer loop
      vertex -11.9098 5.87785 0
      vertex -10 0 30
      vertex -10 0 0
    endloop
  endfacet
  facet normal -0.951057 0.309017 0
    outer loop
      vertex -30 0 0
      vertex -28.0902 5.87785 30
      vertex -28.0902 5.87785 0
    endloop
  endfacet
  facet normal -0.951057 0.309017 0
    outer loop
      vertex -28.0902 5.87785 30
      vertex -30 0 0
      vertex -30 0 30
    endloop
  endfacet
  facet normal 0 1 -0
    outer loop
      vertex -16.9098 9.51056 0
      vertex -23.0902 9.51056 30
      vertex -16.9098 9.51056 30
    endloop
  endfacet
  facet normal 0 1 0
    outer loop
      vertex -23.0902 9.51056 30
      vertex -16.9098 9.51056 0
      vertex -23.0902 9.51056 0
    endloop
  endfacet
  facet normal 0.587785 0.809017 -0
    outer loop
      vertex -11.9098 5.87785 0
      vertex -16.9098 9.51056 30
      vertex -11.9098 5.87785 30
    endloop
  endfacet
  facet normal 0.587785 0.809017 0
    outer loop
      vertex -16.9098 9.51056 30
      vertex -11.9098 5.87785 0
      vertex -16.9098 9.51056 0
    endloop
  endfacet
  facet normal 0 0 1
    outer loop
      vertex -11.9098 5.87785 30
      vertex -11.9098 -5.87785 30
      vertex -10 0 30
    endloop
  endfacet
  facet normal 0 0 1
    outer loop
      vertex -16.9098 9.51056 30
      vertex -11.9098 -5.87785 30
      vertex -11.9098 5.87785 30
    endloop
  endfacet
  facet normal 0 0 1
    outer loop
      vertex -16.9098 9.51056 30
      vertex -16.9098 -9.51056 30
      vertex -11.9098 -5.87785 30
    endloop
  endfacet
  facet normal -0 0 1
    outer loop
      vertex -23.0902 9.51056 30
      vertex -16.9098 -9.51056 30
      vertex -16.9098 9.51056 30
    endloop
  endfacet
  facet normal 0 0 1
    outer loop
      vertex -23.0902 9.51056 30
      vertex -23.0902 -9.51056 30
      vertex -16.9098 -9.51056 30
    endloop
  endfacet
  facet normal -0 0 1
    outer loop
      vertex -28.0902 5.87785 30
      vertex -23.0902 -9.51056 30
      vertex -23.0902 9.51056 30
    endloop
  endfacet
  facet normal 0 0 1
    outer loop
      vertex -28.0902 5.87785 30
      vertex -28.0902 -5.87785 30
      vertex -23.0902 -9.51056 30
    endloop
  endfacet
  facet normal 0 -0 1
    outer loop
      vertex -28.0902 -5.87785 30
      vertex -28.0902 5.87785 30
      vertex -30 0 30
    endloop
  endfacet
  facet normal -0.587785 0.809017 0
    outer loop
      vertex -23.0902 9.51056 0
      vertex -28.0902 5.87785 30
      vertex -23.0902 9.51056 30
    endloop
  endfacet
  facet normal -0.587785 0.809017 0
    outer loop
      vertex -28.0902 5.87785 30
      vertex -23.0902 9.51056 0
      vertex -28.0902 5.87785 0
    endloop
  endfacet
  facet normal -0.951057 -0.309017 0
    outer loop
      vertex -28.0902 -5.87785 0
      vertex -30 0 30
      vertex -30 0 0
    endloop
  endfacet
  facet normal -0.951057 -0.309017 0
    outer loop
      vertex -30 0 30
      vertex -28.0902 -5.87785 0
      vertex -28.0902 -5.87785 30
    endloop
  endfacet
  facet normal 0 -1 0
    outer loop
      vertex -23.0902 -9.51056 0
      vertex -16.9098 -9.51056 30
      vertex -23.0902 -9.51056 30
    endloop
  endfacet
  facet normal 0 -1 -0
    outer loop
      vertex -16.9098 -9.51056 30
      vertex -23.0902 -9.51056 0
      vertex -16.9098 -9.51056 0
    endloop
  endfacet
  facet normal 0.587785 -0.809017 0
    outer loop
      vertex -16.9098 -9.51056 0
      vertex -11.9098 -5.87785 30
      vertex -16.9098 -9.51056 30
    endloop
  endfacet
  facet normal 0.587785 -0.809017 0
    outer loop
      vertex -11.9098 -5.87785 30
      vertex -16.9098 -9.51056 0
      vertex -11.9098 -5.87785 0
    endloop
  endfacet
  facet normal 0 0 -1
    outer loop
      vertex -11.9098 -5.87785 0
      vertex -11.9098 5.87785 0
      vertex -10 0 0
    endloop
  endfacet
  facet normal 0 0 -1
    outer loop
      vertex -16.9098 -9.51056 0
      vertex -11.9098 5.87785 0
      vertex -11.9098 -5.87785 0
    endloop
  endfacet
  facet normal 0 0 -1
    outer loop
      vertex -16.9098 -9.51056 0
      vertex -16.9098 9.51056 0
      vertex -11.9098 5.87785 0
    endloop
  endfacet
  facet normal 0 0 -1
    outer loop
      vertex -23.0902 -9.51056 0
      vertex -16.9098 9.51056 0
      vertex -16.9098 -9.51056 0
    endloop
  endfacet
  facet normal 0 0 -1
    outer loop
      vertex -23.0902 -9.51056 0
      vertex -23.0902 9.51056 0
      vertex -16.9098 9.51056 0
    endloop
  endfacet
  facet normal 0 0 -1
    outer loop
      vertex -28.0902 -5.87785 0
      vertex -23.0902 9.51056 0
      vertex -23.0902 -9.51056 0
    endloop
  endfacet
  facet normal 0 0 -1
    outer loop
      vertex -28.0902 -5.87785 0
      vertex -28.0902 5.87785 0
      vertex -23.0902 9.51056 0
    endloop
  endfacet
  facet normal 0 -0 -1
    outer loop
      vertex -28.0902 5.87785 0
      vertex -28.0902 -5.87785 0
      vertex -30 0 0
    endloop
  endfacet
  facet normal -0.587785 -0.809017 0
    outer loop
      vertex -28.0902 -5.87785 0
      vertex -23.0902 -9.51056 30
      vertex -28.0902 -5.87785 30
    endloop
  endfacet
  facet normal -0.587785 -0.809017 -0
    outer loop
      vertex -23.0902 -9.51056 30
      vertex -28.0902 -5.87785 0
      vertex -23.0902 -9.51056 0
    endloop
  endfacet
  facet normal 0.951057 -0.309017 0
    outer loop
      vertex -11.9098 -5.87785 30
      vertex -10 0 0
      vertex -10 0 30
    endloop
  endfacet
  facet normal 0.951057 -0.309017 0
    outer loop
      vertex -10 0 0
      vertex -11.9098 -5.87785 30
      vertex -11.9098 -5.87785 0
    endloop
  endfacet
endsolid OpenSCAD_Model
